<?xml version="1.0" encoding="UTF-8"?>
<svg width="40" height="40" xmlns="http://www.w3.org/2000/svg" xmlns:xlink="http://www.w3.org/1999/xlink">
  <defs>
    <path d="M19.337 17.008h4.471a.905.905 0 0 0 .911-.898.905.905 0 0 0-.91-.899h-6.064a.458.458 0 0 0-.46.455l-.002 10.717c.002.037.004.074.004.11a1.72 1.72 0 0 1-1.731 1.708 1.72 1.72 0 0 1-1.731-1.707c0-.051 0-.063-.003-.096V12.027c0-.126.103-.228.23-.228a15542.38 15542.38 0 0 1 9.756.001c2.415 0 4.373 1.931 4.373 4.313 0 2.318-1.858 4.219-4.208 4.31h-4.636a.229.229 0 0 1-.23-.228v-2.96c0-.125.103-.227.23-.227zm-.229 9.416l-.001-3.982c0-.126.103-.228.23-.228h4.726C27.374 22.08 30 19.39 30 16.11c0-3.286-2.636-5.98-5.976-6.107L12.46 10a.458.458 0 0 0-.461.454l.001 15.95-.001.09C12 28.43 13.592 30 15.556 30c1.963 0 3.555-1.57 3.555-3.506 0-.035 0-.053-.003-.07z" id="a"/>
  </defs>
  <g fill-rule="nonzero" fill="none">
    <circle fill="#0F6FDE" cx="20" cy="20" r="20"/>
    <use fill="#FFF" xlink:href="#a"/>
  </g>
</svg>